<?xml version="1.0" encoding="UTF-8"?><svg id="UVIC" xmlns="http://www.w3.org/2000/svg" viewBox="0 0 648 198"><defs><style>.cls-1{fill:#005493;}.cls-2{fill:#26a739;}.cls-3{fill:#f5aa1c;}</style></defs><path class="cls-1" d="M593.28,114.46c-6.71,12.03-15.27,20.36-30.53,20.36-17.81,0-30.3-14.8-30.3-35.85v-.46c0-19.43,12.03-35.39,30.3-35.39,14.8,0,23.36,8.1,29.38,19.66l51.07-29.82c-14.84-26.9-40.98-45.76-79.71-45.76-52.55,0-93.53,39.22-93.53,91.77v.5c0,54.56,42.49,91.27,91.27,91.27,43.75,0,68.39-21.37,83.23-47.52l-51.17-28.75Z"/><rect class="cls-1" x="399.08" y="7.53" width="59.96" height="183.37"/><polygon class="cls-2" points="290.63 111 320.09 190.68 393.44 7.38 326.96 7.38 290.63 111"/><polygon class="cls-3" points="261.32 190.68 320.09 190.68 290.63 111 261.32 190.68"/><polygon class="cls-1" points="255.01 7.37 187.87 7.37 261.32 190.68 290.63 111 255.01 7.37"/><path class="cls-1" d="M121.31,106.95c0,21.78-11.53,30.49-27.67,30.49s-27.67-9.48-27.67-31.77V7.53H4.98v98.91c0,59.45,34.59,84.05,88.15,84.05s89.17-24.09,89.17-85.33V7.53h-60.98v99.42Z"/></svg>